<svg width="360" height="72" viewBox="0 0 360 72" fill="none" xmlns="http://www.w3.org/2000/svg">
<g filter="url(#filter0_d_14_196)">
<path d="M350.775 29.0625C321.712 35.65 313.187 66.65 283.737 60.45C256.612 51.925 232.2 47.4383 232.2 31.3875C232.2 15.3367 271.337 8.9125 297.3 0C325.763 0 336.825 10.4625 350.775 29.0625Z" fill="#D3C3A2"/>
<path d="M350.775 28.675C326.229 16.6821 316.5 15.5088 302.725 18.3322" stroke="#665E4E" stroke-width="0.155"/>
<path d="M350.775 28.675C322.27 7.88731 310.972 5.85356 294.975 10.7474" stroke="#998D75" stroke-width="0.155"/>
<path d="M350.775 28.675C324.645 23.0783 314.289 22.5308 299.625 23.8483" stroke="#998D75" stroke-width="0.155"/>
<path d="M350.775 28.675C317.123 1.49111 303.786 -1.16841 284.9 5.23119" stroke="#B8AA8D" stroke-width="0.155"/>
<path d="M350.775 29.0625C321.663 27.1532 300.787 34.875 298.462 41.4625" stroke="#B8AA8D" stroke-width="0.155"/>
<path d="M9 24.353C9 17.6817 14.2782 12.2062 20.9449 11.9613L270.495 2.79708C277.517 2.5392 283.35 8.16196 283.35 15.1887V49.1363C283.35 56.163 277.517 61.7858 270.495 61.5279L20.9449 52.3637C14.2782 52.1188 9 46.6433 9 39.972V24.353Z" fill="#B65700"/>
</g>
<path d="M28.2417 20.1238C30.9542 20.2207 33.0734 20.2691 34.5992 20.2691C44.989 20.2086 50.741 20.1602 51.855 20.1238C52.0125 21.3348 52.3212 22.4852 52.7814 23.575C53.2416 24.6527 53.8289 25.8031 54.5433 27.0262C54.4464 27.232 54.2345 27.3955 53.9076 27.5166C53.4716 26.6932 52.9449 25.9605 52.3273 25.3187C51.7097 24.6769 50.9287 24.0715 49.9841 23.5023C49.0517 22.9332 47.8832 22.467 46.4785 22.1037C45.0859 21.7404 43.4935 21.4982 41.7013 21.3771H36.688C36.5306 26.4994 36.4519 30.3562 36.4519 32.9477H41.6287C41.9798 32.9477 42.3068 32.9234 42.6095 32.875C42.9244 32.8144 43.215 32.7176 43.4814 32.5844C43.7478 32.4391 43.9839 32.3059 44.1898 32.1848C44.4078 32.0516 44.6257 31.8578 44.8437 31.6035C45.0617 31.3371 45.2433 31.1191 45.3886 30.9496C45.5339 30.768 45.7095 30.4955 45.9154 30.1322C46.1212 29.7689 46.2787 29.4844 46.3876 29.2785C46.4966 29.0727 46.6601 28.7518 46.8781 28.3158C47.1082 27.8799 47.2837 27.5529 47.4048 27.335C47.7802 27.4803 48.0103 27.6377 48.0951 27.8072C47.5865 28.7033 47.1566 29.6963 46.8054 30.7861C46.4542 31.876 46.2787 32.7842 46.2787 33.5107C46.2787 35.2303 46.8841 37.1254 48.0951 39.1961C47.9982 39.3898 47.7681 39.5533 47.4048 39.6865C47.2716 39.4443 47.0839 39.0992 46.8417 38.6512C46.6117 38.191 46.43 37.8398 46.2968 37.5977C46.1636 37.3555 45.982 37.0467 45.7519 36.6713C45.5218 36.2959 45.316 36.0053 45.1343 35.7994C44.9648 35.5936 44.7408 35.3635 44.4623 35.1092C44.1958 34.8549 43.9294 34.6672 43.663 34.5461C43.3966 34.4129 43.0878 34.3039 42.7367 34.2191C42.3976 34.1223 42.0283 34.0738 41.6287 34.0738H36.4519C36.4519 35.9992 36.5185 39.8803 36.6517 45.717H42.446C44.2382 45.5959 45.8306 45.3537 47.2232 44.9904C48.6279 44.6271 49.7964 44.1609 50.7289 43.5918C51.6734 43.0227 52.4544 42.4172 53.072 41.7754C53.6896 41.1336 54.2164 40.401 54.6523 39.5775C54.9792 39.6986 55.1912 39.8561 55.288 40.0498C55.2275 40.1709 55.0701 40.4615 54.8158 40.9217C54.5615 41.3818 54.3919 41.6967 54.3072 41.8662C54.2224 42.0236 54.0771 42.3082 53.8712 42.7199C53.6775 43.1195 53.5322 43.4465 53.4353 43.7008C53.3384 43.943 53.2234 44.2518 53.0902 44.6271C52.9691 45.0025 52.8662 45.3719 52.7814 45.7352C52.7087 46.0863 52.6482 46.4496 52.5998 46.825H36.6517C33.3701 46.825 30.5546 46.8613 28.2054 46.934C28.157 46.7887 28.1328 46.6676 28.1328 46.5707C28.1328 46.4859 28.157 46.3225 28.2054 46.0803C28.7625 46.0318 29.2105 45.9834 29.5496 45.935C29.9007 45.8744 30.3246 45.7836 30.821 45.6625C31.3296 45.5414 31.7171 45.3719 31.9835 45.1539C32.25 44.9238 32.3892 44.6514 32.4013 44.3365C32.5466 40.5463 32.6193 36.7258 32.6193 32.875C32.6193 28.9516 32.5587 25.567 32.4376 22.7213C32.4255 22.4064 32.2863 22.14 32.0199 21.9221C31.7535 21.692 31.366 21.5164 30.8574 21.3953C30.3609 21.2742 29.9371 21.1894 29.5859 21.141C29.2468 21.0805 28.7988 21.026 28.2417 20.9775C28.1933 20.7596 28.1691 20.6082 28.1691 20.5234C28.1691 20.4508 28.1933 20.3176 28.2417 20.1238ZM62.5718 27.226C62.6929 27.1775 62.8322 27.1533 62.9896 27.1533C63.147 27.1533 63.3105 27.1775 63.48 27.226V31.2039H68.9837C69.0564 31.3855 69.0927 31.6096 69.0927 31.876C69.0927 32.1061 69.0564 32.318 68.9837 32.5117H63.48V42.2113C63.48 44.1246 64.358 45.0812 66.1138 45.0812C66.7798 45.0812 67.349 44.9541 67.8212 44.6998C68.3056 44.4455 68.8384 44.0641 69.4197 43.5555C69.7224 43.5918 69.9222 43.7371 70.0191 43.9914C69.4863 44.948 68.6992 45.7473 67.6578 46.3891C66.6164 47.0309 65.472 47.3518 64.2248 47.3518C61.2943 47.3518 59.8291 45.5777 59.8291 42.0297V32.5117H57.5949C57.5464 32.2937 57.5222 32.1545 57.5222 32.0939C57.5222 32.0818 57.5464 31.9426 57.5949 31.6762C58.1761 31.3855 58.6181 31.1494 58.9209 30.9678C59.2357 30.774 59.6292 30.5016 60.1015 30.1504C60.5859 29.7992 61.0218 29.3875 61.4093 28.9152C61.8089 28.4309 62.1964 27.8678 62.5718 27.226ZM86.6392 42.1023C86.9298 42.1629 87.166 42.2961 87.3476 42.5019C86.7421 44.1246 85.8037 45.3416 84.5322 46.1529C83.2607 46.9521 81.8802 47.3518 80.3908 47.3518C79.6521 47.3518 78.9316 47.2549 78.2292 47.0611C77.5269 46.8795 76.8427 46.5768 76.1767 46.1529C75.5228 45.7291 74.9476 45.2084 74.4511 44.5908C73.9667 43.9611 73.5732 43.1801 73.2705 42.2477C72.9798 41.3031 72.8345 40.2617 72.8345 39.1234C72.8345 36.4957 73.6398 34.3705 75.2503 32.7478C76.8609 31.1252 78.871 30.3139 81.2808 30.3139C82.9761 30.3139 84.3566 30.6832 85.4222 31.4219C86.5 32.1484 87.0388 33.0809 87.0388 34.2191C87.0388 34.8609 86.8269 35.3937 86.4031 35.8176C85.9792 36.2414 85.4585 36.4533 84.841 36.4533C84.1871 36.4533 83.6603 36.2656 83.2607 35.8902C82.8611 35.5027 82.6613 35.0547 82.6613 34.5461C82.6613 33.6258 83.1275 33.0445 84.0599 32.8023C83.9751 32.5238 83.7027 32.2393 83.2425 31.9486C82.7824 31.6459 82.1285 31.4945 81.2808 31.4945C80.8449 31.4945 80.4332 31.549 80.0457 31.658C79.6582 31.7549 79.2404 31.9668 78.7923 32.2937C78.3564 32.6207 77.981 33.0506 77.6662 33.5834C77.3634 34.1162 77.1091 34.8609 76.9033 35.8176C76.6974 36.7621 76.5945 37.8641 76.5945 39.1234C76.5945 39.9711 76.6792 40.74 76.8488 41.4303C77.0304 42.1205 77.3089 42.7441 77.6843 43.3012C78.0597 43.8582 78.5744 44.2941 79.2283 44.609C79.8822 44.9238 80.6511 45.0812 81.5351 45.0812C82.0921 45.0812 82.6189 45.0086 83.1154 44.8633C83.6119 44.7059 84.0115 44.5424 84.3142 44.3728C84.6291 44.2033 84.9621 43.949 85.3132 43.61C85.6765 43.2588 85.9187 43.0105 86.0398 42.8652C86.1609 42.7078 86.3607 42.4535 86.6392 42.1023ZM89.6726 20.7051C91.9734 20.4871 94.0138 19.9906 95.7939 19.2156C96.1209 19.3488 96.3328 19.5123 96.4296 19.7061V33.6561C97.6285 32.6389 98.7546 31.8275 99.8082 31.2221C100.862 30.6166 101.933 30.3139 103.023 30.3139C104.392 30.3139 105.366 30.7014 105.948 31.4764C106.529 32.2514 106.832 33.4623 106.856 35.1092L107.001 44.3365C107.013 44.6514 107.104 44.9238 107.274 45.1539C107.455 45.3719 107.71 45.5414 108.036 45.6625C108.363 45.7836 108.636 45.8744 108.854 45.935C109.072 45.9834 109.356 46.0318 109.708 46.0803C109.768 46.383 109.798 46.5465 109.798 46.5707C109.798 46.6312 109.768 46.7523 109.708 46.934C108.145 46.8613 106.723 46.825 105.439 46.825C104.143 46.825 102.714 46.8613 101.152 46.934C101.104 46.7402 101.08 46.5949 101.08 46.498C101.08 46.4133 101.104 46.274 101.152 46.0803C101.467 46.0318 101.727 45.9834 101.933 45.935C102.151 45.8744 102.394 45.7836 102.66 45.6625C102.938 45.5414 103.144 45.3719 103.277 45.1539C103.423 44.9238 103.495 44.6514 103.495 44.3365L103.532 35.7086C103.532 33.5168 102.878 32.4209 101.57 32.4209C100.347 32.4209 98.6335 33.2141 96.4296 34.8004C96.4781 39.8379 96.5265 43.0166 96.575 44.3365C96.5871 44.5908 96.6597 44.8209 96.7929 45.0268C96.9382 45.2205 97.0957 45.3779 97.2652 45.499C97.4347 45.608 97.6648 45.7109 97.9554 45.8078C98.246 45.8926 98.4701 45.9531 98.6275 45.9895C98.797 46.0137 99.021 46.0439 99.2996 46.0803C99.3722 46.2256 99.4085 46.377 99.4085 46.5344C99.4085 46.6918 99.3722 46.825 99.2996 46.934C97.7011 46.8613 96.1511 46.825 94.6496 46.825C93.1722 46.825 91.6343 46.8613 90.0359 46.934C89.9875 46.7402 89.9632 46.607 89.9632 46.5344C89.9632 46.4738 89.9875 46.3225 90.0359 46.0803C90.4355 46.0318 90.7564 45.9834 90.9986 45.935C91.2529 45.8744 91.5677 45.7836 91.9431 45.6625C92.3306 45.5414 92.6212 45.3719 92.815 45.1539C93.0087 44.9238 93.1117 44.6514 93.1238 44.3365C93.1722 43.1377 93.1964 40.4555 93.1964 36.2898C93.1964 34.3644 93.1904 31.7428 93.1783 28.4248C93.1662 25.1068 93.1601 23.0664 93.1601 22.3035C92.4699 21.9039 91.3074 21.6557 89.6726 21.5588C89.6121 21.4014 89.5818 21.2561 89.5818 21.1228C89.5818 21.0018 89.6121 20.8625 89.6726 20.7051ZM123.494 34.8912C123.494 33.5592 124.1 32.4633 125.311 31.6035C126.534 30.7437 127.975 30.3139 129.634 30.3139C131.668 30.3139 133.097 30.7195 133.92 31.5309C134.756 32.3422 135.174 33.7105 135.174 35.6359V43.174C135.174 43.8521 135.422 44.1912 135.918 44.1912C136.318 44.1912 136.827 43.7068 137.444 42.7381C137.88 42.7744 138.177 42.9682 138.334 43.3193C138.249 43.4404 138.104 43.6584 137.898 43.9732C137.692 44.2881 137.541 44.5121 137.444 44.6453C137.347 44.7785 137.196 44.9844 136.99 45.2629C136.784 45.5293 136.615 45.7291 136.481 45.8623C136.36 45.9955 136.191 46.1529 135.973 46.3346C135.767 46.5162 135.573 46.6555 135.392 46.7523C135.222 46.8371 135.022 46.9098 134.792 46.9703C134.562 47.043 134.332 47.0793 134.102 47.0793C133.496 47.0793 132.994 46.8613 132.594 46.4254C132.207 45.9895 131.977 45.3174 131.904 44.4092C131.892 44.4213 131.704 44.5969 131.341 44.9359C130.978 45.275 130.723 45.5051 130.578 45.6262C130.445 45.7352 130.185 45.935 129.797 46.2256C129.422 46.5041 129.101 46.7039 128.834 46.825C128.568 46.9461 128.235 47.0611 127.835 47.1701C127.436 47.2912 127.042 47.3518 126.655 47.3518C126.037 47.3518 125.486 47.267 125.002 47.0975C124.529 46.9279 124.16 46.7221 123.894 46.4799C123.627 46.2377 123.409 45.9592 123.24 45.6443C123.07 45.3174 122.955 45.0207 122.895 44.7543C122.846 44.4879 122.822 44.2215 122.822 43.9551C122.822 43.1437 122.955 42.4596 123.222 41.9025C123.5 41.3455 124.009 40.8248 124.747 40.3404C125.498 39.8561 126.419 39.4262 127.508 39.0508C128.598 38.6754 130.063 38.2516 131.904 37.7793V35.2545C131.904 34.0314 131.632 33.1172 131.087 32.5117C130.554 31.9062 129.833 31.6035 128.925 31.6035C128.114 31.6035 127.43 31.767 126.873 32.0939C126.328 32.4088 125.995 32.7781 125.874 33.2019C127.06 33.3836 127.654 34.0314 127.654 35.1455C127.654 35.6541 127.472 36.1021 127.109 36.4896C126.745 36.8771 126.237 37.0709 125.583 37.0709C125.038 37.0709 124.554 36.8832 124.13 36.5078C123.706 36.1203 123.494 35.5814 123.494 34.8912ZM131.904 42.7381V38.9418C130.79 39.1961 129.87 39.4746 129.143 39.7773C128.417 40.068 127.86 40.3889 127.472 40.74C127.097 41.0912 126.836 41.4545 126.691 41.8299C126.546 42.1932 126.473 42.617 126.473 43.1014C126.473 43.7068 126.649 44.1852 127 44.5363C127.363 44.8754 127.805 45.0449 128.326 45.0449C129.537 45.0449 130.729 44.276 131.904 42.7381ZM167.814 27.8072C167.354 25.5912 166.507 23.8717 165.271 22.6486C164.048 21.4256 162.577 20.8141 160.858 20.8141C159.174 20.8141 157.867 21.2137 156.934 22.0129C156.014 22.8121 155.554 23.8777 155.554 25.2098C155.554 25.9484 155.62 26.56 155.753 27.0443C155.887 27.5287 156.159 28.001 156.571 28.4611C156.983 28.9092 157.582 29.3088 158.369 29.66C159.156 29.999 160.186 30.326 161.457 30.6408C162.147 30.8103 162.747 30.9678 163.255 31.1131C163.776 31.2584 164.345 31.4582 164.963 31.7125C165.592 31.9668 166.131 32.2393 166.579 32.5299C167.039 32.8205 167.494 33.1838 167.942 33.6197C168.402 34.0436 168.771 34.5158 169.05 35.0365C169.34 35.5572 169.57 36.1748 169.74 36.8893C169.921 37.5916 170.012 38.3605 170.012 39.1961C170.012 40.3102 169.806 41.3394 169.395 42.284C168.983 43.2164 168.444 44.0035 167.778 44.6453C167.112 45.2871 166.343 45.832 165.471 46.2801C164.599 46.7281 163.715 47.0551 162.819 47.2609C161.923 47.4668 161.033 47.5697 160.149 47.5697C157.461 47.5697 154.597 46.8734 151.558 45.4809C151.618 44.173 151.648 43.3678 151.648 43.065C151.648 41.0912 151.485 39.1234 151.158 37.1617C151.291 37.0769 151.424 37.0346 151.558 37.0346C151.727 37.0346 151.878 37.0769 152.012 37.1617C152.266 38.7238 152.684 40.1043 153.265 41.3031C153.858 42.5019 154.536 43.4525 155.299 44.1549C156.062 44.8451 156.849 45.3658 157.661 45.717C158.484 46.0561 159.314 46.2256 160.149 46.2256C162.05 46.2256 163.51 45.7352 164.527 44.7543C165.556 43.7613 166.071 42.4535 166.071 40.8309C166.071 39.1961 165.689 37.967 164.926 37.1436C164.176 36.308 162.735 35.6299 160.603 35.1092C157.939 34.4432 155.856 33.4623 154.355 32.1666C152.865 30.8588 152.121 29.1332 152.121 26.9898C152.121 25.8637 152.302 24.8586 152.666 23.9746C153.041 23.0785 153.519 22.3641 154.101 21.8312C154.694 21.2863 155.384 20.8383 156.171 20.4871C156.958 20.1238 157.733 19.8756 158.496 19.7424C159.271 19.5971 160.058 19.5244 160.858 19.5244C163.255 19.5244 165.75 20.0814 168.341 21.1955C168.269 21.91 168.232 22.6547 168.232 23.4297C168.232 25.2461 168.377 26.7053 168.668 27.8072C168.511 27.8678 168.377 27.898 168.269 27.898C168.147 27.898 167.996 27.8678 167.814 27.8072ZM184.889 46.0803C185.954 45.9713 186.487 45.6867 186.487 45.2266C186.487 44.9602 186.354 44.6635 186.087 44.3365L181.129 37.9791H180.239C180.239 40.8732 180.275 42.9924 180.348 44.3365C180.348 44.6514 180.426 44.9238 180.584 45.1539C180.753 45.3719 180.995 45.5414 181.31 45.6625C181.637 45.7836 181.904 45.8744 182.11 45.935C182.327 45.9834 182.612 46.0318 182.963 46.0803C183.036 46.2256 183.072 46.377 183.072 46.5344C183.072 46.6918 183.036 46.825 182.963 46.934C181.365 46.8613 179.851 46.825 178.422 46.825C176.945 46.825 175.407 46.8613 173.809 46.934C173.76 46.7402 173.736 46.607 173.736 46.5344C173.736 46.4738 173.76 46.3225 173.809 46.0803C174.208 46.0318 174.529 45.9834 174.771 45.935C175.026 45.8744 175.34 45.7836 175.716 45.6625C176.103 45.5414 176.394 45.3719 176.588 45.1539C176.781 44.9238 176.884 44.6514 176.896 44.3365C176.945 43.1377 176.963 39.3596 176.951 33.0021C176.939 26.6326 176.933 23.0664 176.933 22.3035C176.243 21.9039 175.08 21.6557 173.445 21.5588C173.385 21.4014 173.354 21.2561 173.354 21.1228C173.354 21.0018 173.385 20.8625 173.445 20.7051C175.746 20.4871 177.786 19.9906 179.567 19.2156C179.894 19.3488 180.105 19.5123 180.202 19.7061L180.239 36.8166H181.183L184.852 33.3291C185.082 33.0627 185.197 32.7902 185.197 32.5117C185.197 32.0031 184.622 31.6883 183.472 31.5672C183.423 31.3734 183.399 31.2402 183.399 31.1676C183.399 31.0586 183.423 30.9072 183.472 30.7135C185.046 30.7861 186.299 30.8225 187.232 30.8225C188.249 30.8225 189.539 30.7861 191.101 30.7135C191.149 30.8588 191.173 30.9859 191.173 31.0949C191.173 31.1676 191.149 31.325 191.101 31.5672C190.023 31.6883 189.133 31.8699 188.431 32.1121C187.728 32.3422 187.093 32.7478 186.523 33.3291L183.635 36.2535L190.029 44.3365C190.756 45.2811 191.845 45.8623 193.299 46.0803C193.347 46.3225 193.371 46.4859 193.371 46.5707C193.371 46.6676 193.347 46.7887 193.299 46.934C191.736 46.8613 190.326 46.825 189.066 46.825C187.843 46.825 186.451 46.8613 184.889 46.934C184.84 46.7402 184.816 46.5949 184.816 46.498C184.816 46.4133 184.84 46.274 184.889 46.0803ZM208.175 37.198H198.276C198.227 37.9246 198.203 38.5664 198.203 39.1234C198.239 40.9277 198.766 42.3748 199.783 43.4646C200.8 44.5424 202.163 45.0812 203.87 45.0812C204.33 45.0812 204.76 45.0328 205.16 44.9359C205.559 44.827 205.886 44.7059 206.141 44.5727C206.407 44.4395 206.679 44.2457 206.958 43.9914C207.236 43.7371 207.436 43.5373 207.557 43.392C207.691 43.2346 207.866 43.0045 208.084 42.7018C208.302 42.3869 208.447 42.1871 208.52 42.1023C208.811 42.1629 209.047 42.2961 209.228 42.5019C208.623 44.1246 207.685 45.3416 206.413 46.1529C205.142 46.9521 203.761 47.3518 202.272 47.3518C201.533 47.3518 200.812 47.2549 200.11 47.0611C199.42 46.8795 198.748 46.5768 198.094 46.1529C197.44 45.7291 196.871 45.2084 196.386 44.5908C195.902 43.9611 195.515 43.1801 195.224 42.2477C194.933 41.3031 194.788 40.2617 194.788 39.1234C194.788 36.5684 195.569 34.4613 197.131 32.8023C198.693 31.1434 200.613 30.3139 202.889 30.3139C203.894 30.3139 204.766 30.4592 205.505 30.7498C206.256 31.0283 206.837 31.4098 207.249 31.8941C207.672 32.3785 207.981 32.9113 208.175 33.4926C208.381 34.0617 208.484 34.6732 208.484 35.3271C208.484 35.9326 208.381 36.5562 208.175 37.198ZM202.453 31.4945C201.618 31.4945 200.825 31.8639 200.074 32.6025C199.335 33.3412 198.802 34.4613 198.475 35.9629H205.014C205.136 35.5027 205.196 35.1031 205.196 34.7641C205.196 33.8195 204.978 33.0385 204.542 32.4209C204.106 31.8033 203.41 31.4945 202.453 31.4945ZM217.257 27.226C217.378 27.1775 217.517 27.1533 217.675 27.1533C217.832 27.1533 217.996 27.1775 218.165 27.226V31.2039H223.669C223.742 31.3855 223.778 31.6096 223.778 31.876C223.778 32.1061 223.742 32.318 223.669 32.5117H218.165V42.2113C218.165 44.1246 219.043 45.0812 220.799 45.0812C221.465 45.0812 222.034 44.9541 222.506 44.6998C222.991 44.4455 223.524 44.0641 224.105 43.5555C224.408 43.5918 224.607 43.7371 224.704 43.9914C224.171 44.948 223.384 45.7473 222.343 46.3891C221.302 47.0309 220.157 47.3518 218.91 47.3518C215.979 47.3518 214.514 45.5777 214.514 42.0297V32.5117H212.28C212.232 32.2937 212.207 32.1545 212.207 32.0939C212.207 32.0818 212.232 31.9426 212.28 31.6762C212.861 31.3855 213.303 31.1494 213.606 30.9678C213.921 30.774 214.314 30.5016 214.787 30.1504C215.271 29.7992 215.707 29.3875 216.094 28.9152C216.494 28.4309 216.882 27.8678 217.257 27.226ZM241.324 42.1023C241.615 42.1629 241.851 42.2961 242.033 42.5019C241.427 44.1246 240.489 45.3416 239.217 46.1529C237.946 46.9521 236.565 47.3518 235.076 47.3518C234.337 47.3518 233.617 47.2549 232.914 47.0611C232.212 46.8795 231.528 46.5768 230.862 46.1529C230.208 45.7291 229.633 45.2084 229.136 44.5908C228.652 43.9611 228.258 43.1801 227.956 42.2477C227.665 41.3031 227.52 40.2617 227.52 39.1234C227.52 36.4957 228.325 34.3705 229.936 32.7478C231.546 31.1252 233.556 30.3139 235.966 30.3139C237.661 30.3139 239.042 30.6832 240.107 31.4219C241.185 32.1484 241.724 33.0809 241.724 34.2191C241.724 34.8609 241.512 35.3937 241.088 35.8176C240.664 36.2414 240.144 36.4533 239.526 36.4533C238.872 36.4533 238.345 36.2656 237.946 35.8902C237.546 35.5027 237.346 35.0547 237.346 34.5461C237.346 33.6258 237.813 33.0445 238.745 32.8023C238.66 32.5238 238.388 32.2393 237.928 31.9486C237.468 31.6459 236.814 31.4945 235.966 31.4945C235.53 31.4945 235.118 31.549 234.731 31.658C234.343 31.7549 233.926 31.9668 233.477 32.2937C233.042 32.6207 232.666 33.0506 232.351 33.5834C232.049 34.1162 231.794 34.8609 231.588 35.8176C231.383 36.7621 231.28 37.8641 231.28 39.1234C231.28 39.9711 231.364 40.74 231.534 41.4303C231.716 42.1205 231.994 42.7441 232.369 43.3012C232.745 43.8582 233.26 44.2941 233.913 44.609C234.567 44.9238 235.336 45.0812 236.22 45.0812C236.777 45.0812 237.304 45.0086 237.801 44.8633C238.297 44.7059 238.697 44.5424 238.999 44.3728C239.314 44.2033 239.647 43.949 239.998 43.61C240.362 43.2588 240.604 43.0105 240.725 42.8652C240.846 42.7078 241.046 42.4535 241.324 42.1023ZM244.358 20.7051C246.659 20.4871 248.699 19.9906 250.479 19.2156C250.806 19.3488 251.018 19.5123 251.115 19.7061V33.6561C252.314 32.6389 253.44 31.8275 254.493 31.2221C255.547 30.6166 256.619 30.3139 257.708 30.3139C259.077 30.3139 260.052 30.7014 260.633 31.4764C261.214 32.2514 261.517 33.4623 261.541 35.1092L261.686 44.3365C261.698 44.6514 261.789 44.9238 261.959 45.1539C262.14 45.3719 262.395 45.5414 262.722 45.6625C263.049 45.7836 263.321 45.8744 263.539 45.935C263.757 45.9834 264.042 46.0318 264.393 46.0803C264.453 46.383 264.484 46.5465 264.484 46.5707C264.484 46.6312 264.453 46.7523 264.393 46.934C262.831 46.8613 261.408 46.825 260.124 46.825C258.828 46.825 257.4 46.8613 255.837 46.934C255.789 46.7402 255.765 46.5949 255.765 46.498C255.765 46.4133 255.789 46.274 255.837 46.0803C256.152 46.0318 256.413 45.9834 256.619 45.935C256.836 45.8744 257.079 45.7836 257.345 45.6625C257.624 45.5414 257.829 45.3719 257.963 45.1539C258.108 44.9238 258.181 44.6514 258.181 44.3365L258.217 35.7086C258.217 33.5168 257.563 32.4209 256.255 32.4209C255.032 32.4209 253.319 33.2141 251.115 34.8004C251.163 39.8379 251.212 43.0166 251.26 44.3365C251.272 44.5908 251.345 44.8209 251.478 45.0268C251.623 45.2205 251.781 45.3779 251.95 45.499C252.12 45.608 252.35 45.7109 252.641 45.8078C252.931 45.8926 253.155 45.9531 253.313 45.9895C253.482 46.0137 253.706 46.0439 253.985 46.0803C254.057 46.2256 254.094 46.377 254.094 46.5344C254.094 46.6918 254.057 46.825 253.985 46.934C252.386 46.8613 250.836 46.825 249.335 46.825C247.857 46.825 246.319 46.8613 244.721 46.934C244.673 46.7402 244.648 46.607 244.648 46.5344C244.648 46.4738 244.673 46.3225 244.721 46.0803C245.121 46.0318 245.442 45.9834 245.684 45.935C245.938 45.8744 246.253 45.7836 246.628 45.6625C247.016 45.5414 247.306 45.3719 247.5 45.1539C247.694 44.9238 247.797 44.6514 247.809 44.3365C247.857 43.1377 247.882 40.4555 247.882 36.2898C247.882 34.3644 247.876 31.7428 247.863 28.4248C247.851 25.1068 247.845 23.0664 247.845 22.3035C247.155 21.9039 245.993 21.6557 244.358 21.5588C244.297 21.4014 244.267 21.2561 244.267 21.1228C244.267 21.0018 244.297 20.8625 244.358 20.7051Z" fill="#FFE9D0"/>
<defs>
<filter id="filter0_d_14_196" x="5" y="0" width="349.824" height="69.5364" filterUnits="userSpaceOnUse" color-interpolation-filters="sRGB">
<feFlood flood-opacity="0" result="BackgroundImageFix"/>
<feColorMatrix in="SourceAlpha" type="matrix" values="0 0 0 0 0 0 0 0 0 0 0 0 0 0 0 0 0 0 127 0" result="hardAlpha"/>
<feOffset dy="4"/>
<feGaussianBlur stdDeviation="2"/>
<feComposite in2="hardAlpha" operator="out"/>
<feColorMatrix type="matrix" values="0 0 0 0 0 0 0 0 0 0 0 0 0 0 0 0 0 0 0.25 0"/>
<feBlend mode="normal" in2="BackgroundImageFix" result="effect1_dropShadow_14_196"/>
<feBlend mode="normal" in="SourceGraphic" in2="effect1_dropShadow_14_196" result="shape"/>
</filter>
</defs>
</svg>
