<svg width="49" height="206" viewBox="0 0 49 206" fill="none" xmlns="http://www.w3.org/2000/svg">
<g filter="url(#filter0_d_14_240)">
<path d="M8.50923 12.6032C11.881 8.00883 16.8232 4.41959 23.185 0.422798C25.2677 7.65182 30.4256 12.7189 35.2429 17.4515C36.0089 18.204 36.7662 18.948 37.5013 19.691C40.2286 22.4477 42.6505 25.1867 44.1259 28.2946C45.5944 31.3877 46.1299 34.8565 45.0655 39.0888C44.1868 41.4225 43.371 43.7164 42.5828 45.9325C40.6873 51.2621 38.9519 56.1416 36.8867 60.0432C33.9677 65.5578 30.4441 69.012 24.9763 69.012C22.2708 69.012 19.9508 67.6393 17.8824 65.2937C15.811 62.9447 14.0136 59.643 12.3627 55.8449C10.7129 52.0494 9.2176 47.7785 7.74241 43.5002C7.63088 43.1768 7.51946 42.8533 7.40809 42.5299C6.05435 38.5993 4.70895 34.693 3.27122 31.1919C3.27906 22.9492 5.09887 17.2502 8.50923 12.6032Z" fill="#D3C3A2" stroke="#665E4E" stroke-width="0.542628"/>
<path d="M23.077 -4.20213e-06C14.68 14.3424 13.8585 20.0266 15.8353 28.0756" stroke="#665E4E" stroke-width="0.108526"/>
<path d="M23.0771 -2.38419e-07C8.52227 16.6557 7.09831 23.2567 10.5248 32.6039" stroke="#665E4E" stroke-width="0.108526"/>
<path d="M23.0771 1.17719e-05C19.1585 15.2678 18.7752 21.3186 19.6977 29.8869" stroke="#665E4E" stroke-width="0.108526"/>
<path d="M23.077 2.55108e-05C4.04382 19.663 2.18173 27.4558 6.6625 38.4907" stroke="#665E4E" stroke-width="0.108526"/>
<path d="M23.3484 7.89039e-05C22.0116 17.0103 27.4182 29.2077 32.0305 30.5662" stroke="#665E4E" stroke-width="0.108526"/>
<path d="M11.5876 191.387L5.29759 48.4482C5.087 43.6626 8.90996 39.6678 13.7002 39.6678H37.3375C42.1278 39.6678 45.9507 43.6626 45.7401 48.4482L39.4501 191.387C39.2522 195.884 35.5488 199.428 31.0475 199.428H19.9902C15.4889 199.428 11.7855 195.884 11.5876 191.387Z" fill="#B65700" stroke="#665E4E" stroke-width="0.542628"/>
</g>
<defs>
<filter id="filter0_d_14_240" x="0.19922" y="-0.0377197" width="48.6212" height="205.338" filterUnits="userSpaceOnUse" color-interpolation-filters="sRGB">
<feFlood flood-opacity="0" result="BackgroundImageFix"/>
<feColorMatrix in="SourceAlpha" type="matrix" values="0 0 0 0 0 0 0 0 0 0 0 0 0 0 0 0 0 0 127 0" result="hardAlpha"/>
<feOffset dy="2.80066"/>
<feGaussianBlur stdDeviation="1.40033"/>
<feComposite in2="hardAlpha" operator="out"/>
<feColorMatrix type="matrix" values="0 0 0 0 0 0 0 0 0 0 0 0 0 0 0 0 0 0 0.25 0"/>
<feBlend mode="normal" in2="BackgroundImageFix" result="effect1_dropShadow_14_240"/>
<feBlend mode="normal" in="SourceGraphic" in2="effect1_dropShadow_14_240" result="shape"/>
</filter>
</defs>
</svg>
